<?xml version="1.0" ?><!DOCTYPE svg  PUBLIC '-//W3C//DTD SVG 1.1//EN'  'http://www.w3.org/Graphics/SVG/1.1/DTD/svg11.dtd'><svg enable-background="new 0 0 512 512" height="512px" id="Layer_1" version="1.1" viewBox="0 0 512 512" width="512px" xml:space="preserve" xmlns="http://www.w3.org/2000/svg" xmlns:xlink="http://www.w3.org/1999/xlink"><g><g><g><path d="M179.808,212.15c1.992-1.177,2.99-3.216,2.99-6.116c0-3.007-0.933-5.118-2.799-6.333     c-1.867-1.213-5.5-1.821-10.9-1.821h-4.675v16.037h4.349C174.135,213.917,177.815,213.329,179.808,212.15z" fill="#333333"/><path d="M253.305,201.849c-0.435-1.775-0.997-4.059-1.685-6.85c-0.471,1.957-0.933,3.824-1.386,5.599     c-0.454,1.776-0.916,3.479-1.386,5.11l-7.992,26.257h21.582l-8.101-26.257C254.084,204.912,253.74,203.625,253.305,201.849z" fill="#333333"/><path d="M174.609,287.322c-0.326-1.331-0.747-3.043-1.264-5.137c-0.354,1.468-0.7,2.867-1.039,4.199     c-0.34,1.331-0.687,2.609-1.04,3.832l-5.994,19.693h16.186l-6.075-19.693C175.194,289.619,174.935,288.654,174.609,287.322z" fill="#333333"/><path d="M481.641,97.198H29.909c-16.638,0-30.126,13.488-30.126,30.126v257.901     c0,16.638,13.488,30.126,30.126,30.126h451.732c16.638,0,30.126-13.488,30.126-30.126V127.324     C511.767,110.686,498.279,97.198,481.641,97.198z M38.769,181.912h88.139v15.772H38.769V181.912z M38.769,212.529h88.139v15.772     H38.769V212.529z M38.769,245.928h88.139v15.773H38.769V245.928z M88.011,286.63H74.638v45.582H58.37V286.63H44.998v-14.107     h43.013V286.63z M187.901,332.212l-3.017-10.683h-23.118l-3.099,10.683h-15.371h-0.815h-17.573L111.21,308.85v23.362H95.961     v-59.689h17.002c6.659,0,11.3,0.306,13.923,0.917c2.623,0.612,4.886,1.638,6.789,3.078c2.148,1.631,3.798,3.711,4.954,6.238     c1.155,2.527,1.733,5.314,1.733,8.357c0,4.621-1.135,8.38-3.404,11.273c-2.271,2.896-5.58,4.818-9.929,5.771l15.728,23.256     l20.314-58.891h20.386l20.63,59.689H187.901z M204.081,250.176c-1.794,3.226-4.358,5.727-7.692,7.502     c-2.718,1.45-6.07,2.482-10.057,3.099c-3.987,0.617-10.511,0.925-19.57,0.925H144.31v-79.586h21.799     c8.988,0,15.267,0.291,18.836,0.87c3.569,0.58,6.641,1.576,9.215,2.99c2.935,1.631,5.172,3.815,6.713,6.551     c1.541,2.736,2.311,5.898,2.311,9.486c0,4.531-1.151,8.127-3.452,10.791c-2.302,2.664-5.972,4.684-11.008,6.061     c5.653,0.435,10.075,2.419,13.264,5.953c3.188,3.534,4.784,8.254,4.784,14.161C206.771,243.218,205.875,246.951,204.081,250.176z      M268.139,332.212h-15.616l-22.546-30.823c-0.462-0.626-1.19-1.882-2.181-3.771c-0.993-1.891-2.073-4.111-3.242-6.667     c0.326,2.501,0.563,4.716,0.714,6.646c0.148,1.931,0.224,3.643,0.224,5.138v29.478h-15.697v-59.689h15.697l22.547,30.7     c0.435,0.627,1.147,1.882,2.14,3.772c0.992,1.889,2.087,4.138,3.283,6.747c-0.326-2.473-0.564-4.674-0.713-6.604     c-0.151-1.931-0.225-3.643-0.225-5.138v-29.478h15.616V332.212z M267.004,247.458h-30.823l-4.132,14.243h-21.582l27.453-79.586     h27.181l27.507,79.586h-21.581L267.004,247.458z M314.088,328.033c-4.158,3.846-9.704,5.769-16.635,5.769     c-4.159,0-7.944-0.708-11.355-2.12c-3.411-1.413-6.692-3.629-9.846-6.646l7.339-12.108c2.419,2.746,4.804,4.798,7.155,6.156     c2.351,1.359,4.695,2.039,7.033,2.039c2.174,0,3.961-0.585,5.361-1.753c1.399-1.168,2.1-2.65,2.1-4.444     c0-1.984-0.605-3.513-1.813-4.587c-1.211-1.074-3.948-2.181-8.216-3.323c-5.844-1.576-9.975-3.629-12.394-6.156     c-2.419-2.527-3.629-5.993-3.629-10.396c0-5.708,1.909-10.362,5.729-13.964c3.817-3.602,8.771-5.402,14.86-5.402     c3.289,0,6.407,0.441,9.357,1.325c2.947,0.883,5.741,2.221,8.378,4.016l-5.097,11.701c-1.849-1.575-3.745-2.766-5.688-3.566     c-1.943-0.802-3.866-1.204-5.77-1.204c-1.957,0-3.547,0.47-4.769,1.406c-1.224,0.94-1.835,2.141-1.835,3.609     c0,1.495,0.536,2.69,1.61,3.587c1.073,0.898,3.146,1.753,6.218,2.568l0.734,0.204c6.631,1.794,10.994,3.766,13.087,5.912     c1.413,1.469,2.487,3.227,3.221,5.28c0.734,2.053,1.102,4.328,1.102,6.829C320.326,319.098,318.246,324.185,314.088,328.033z      M324.22,215.575c-1.323-2.518-2.765-5.481-4.322-8.888c0.435,3.335,0.753,6.289,0.952,8.861c0.198,2.573,0.299,4.857,0.299,6.85     v39.304H300.22v-79.586h20.929l30.062,40.934c0.578,0.835,1.529,2.51,2.854,5.029c1.322,2.519,2.78,5.518,4.377,8.997     c-0.435-3.298-0.754-6.233-0.952-8.807c-0.199-2.573-0.299-4.855-0.299-6.849v-39.304h20.82v79.586h-20.82l-30.062-41.098     C326.511,219.771,325.543,218.094,324.22,215.575z M366.03,285.61h-20.712v10.355h19.529v12.803h-19.529v23.443h-15.86v-59.689     h36.572V285.61z M411.449,285.61h-20.712v10.355h19.53v12.803h-19.53v10.069h20.712v13.374h-36.571v-59.689h36.571V285.61z      M451.161,332.212l-13.7-23.362v23.362h-15.248v-59.689h17.002c6.659,0,11.3,0.306,13.923,0.917     c2.623,0.612,4.887,1.638,6.788,3.078c2.148,1.631,3.799,3.711,4.954,6.238c1.154,2.527,1.733,5.314,1.733,8.357     c0,4.621-1.136,8.38-3.404,11.273c-2.271,2.896-5.579,4.818-9.928,5.771l16.267,24.055H451.161z M442.483,261.701l-25.931-35.716     v35.716H395.08v-79.586h21.473v36.15l25.17-36.15h25.278l-29.41,38.815l31.965,40.771H442.483z" fill="#333333"/><path d="M448.327,286.935c-1.509-1.265-4.043-1.896-7.604-1.896h-3.263v15.697h3.018     c3.507,0,6.068-0.599,7.685-1.795c1.617-1.195,2.427-3.07,2.427-5.626C450.59,290.325,449.836,288.198,448.327,286.935z" fill="#333333"/><path d="M183.232,230.089c-1.957-1.322-5.581-1.984-10.872-1.984h-7.937v17.341h7.61     c5.146,0,8.788-0.643,10.927-1.93c2.139-1.286,3.207-3.434,3.207-6.441C186.168,233.741,185.19,231.413,183.232,230.089z" fill="#333333"/><path d="M122.075,286.935c-1.508-1.265-4.043-1.896-7.604-1.896h-3.261v15.697h3.017     c3.506,0,6.067-0.599,7.685-1.795c1.618-1.195,2.427-3.07,2.427-5.626C124.338,290.325,123.584,288.198,122.075,286.935z" fill="#333333"/></g></g></g></svg>