<svg width="1080" height="1080" viewBox="0 0 1080 1080" fill="none" xmlns="http://www.w3.org/2000/svg">
<g clip-path="url(#clip0)">
<path d="M571.692 851.692C713.077 851.692 827.692 737.077 827.692 595.692C827.692 454.307 713.077 339.692 571.692 339.692C430.307 339.692 315.692 454.307 315.692 595.692C315.692 737.077 430.307 851.692 571.692 851.692Z" fill="#87DCFF"/>
<path d="M601.501 341.475L590.932 374.403C588.374 382.372 581.966 388.511 573.894 390.724L547.382 397.993C545.248 398.578 543.044 398.875 540.831 398.875H501.159C497.02 398.875 493.521 401.939 492.974 406.041L488.424 440.165L463.084 441.492C458.823 441.715 455.434 445.147 455.264 449.41L454.387 471.433C454.189 476.392 458.379 480.404 463.324 479.992L480.206 478.585C484.546 478.223 488.51 475.975 491.048 472.436L506.661 450.66L540.054 449.467C547.196 449.212 552.242 456.398 549.649 463.058C543.83 478.001 543.822 479.281 543.822 480.595C543.822 485.16 547.516 488.853 552.08 488.853C556.161 488.853 559.556 485.885 560.217 481.998C560.781 480.095 563.303 473.497 566.605 465.121C567.984 461.623 572.735 461.108 574.807 464.246L576.942 467.477C580.889 473.452 588.238 476.202 595.138 474.287L609.884 470.195C613.994 469.055 617.313 466.021 618.817 462.03L621.645 454.526C623.642 449.227 628.215 445.321 633.761 444.176L643.291 442.209C649.776 440.871 656.652 444.792 657.781 451.317C658.934 457.983 654.25 464.039 647.743 464.785L624.764 465.402C620.091 465.528 616.337 469.293 616.226 473.967L616.174 476.167C616.132 477.934 617.107 479.569 618.681 480.372L631.895 487.114C636.925 489.68 638.564 496.076 635.389 500.746C633.642 503.315 630.738 504.852 627.631 504.852H557.938C556.114 504.852 554.306 504.509 552.609 503.84L494.127 480.802C489.799 479.097 484.878 480.02 481.462 483.177L426.076 534.367C421.661 538.448 419.812 544.606 421.249 550.444L432.51 596.191C434.248 603.252 440.4 608.345 447.661 608.736L510.059 612.091C522.336 612.751 532.271 622.315 533.399 634.557L538.132 685.944C538.486 689.788 539.499 693.495 541.168 696.977C546.426 707.946 558.685 732.879 565.5 741.498C574.274 752.595 595.891 753.035 603.177 746.401L653.911 704.886C658.151 701.026 660.92 695.815 661.748 690.141L667.692 649.369L707.979 604.971C711.903 600.645 710.141 594.012 705.147 591.869L704.425 592.353C701.369 594.401 697.844 595.643 694.199 595.966C693.554 596.022 692.909 596.055 692.264 596.055C684.796 596.055 677.869 592.265 673.845 585.861L643.087 537.022C640.66 533.159 641.821 528.062 645.676 525.627C649.563 523.216 654.636 524.369 657.071 528.216L687.829 577.063C688.885 578.757 690.756 579.676 692.756 579.515C693.635 579.434 694.498 579.128 695.24 578.636L736.815 555.852C741.148 553.477 742.296 547.771 739.217 543.906C737.505 541.757 734.807 540.642 732.078 540.955L723.345 541.959C720.999 542.229 718.65 541.482 716.89 539.908L690.74 516.516C687.345 513.476 687.055 508.258 690.095 504.855C693.127 501.452 698.345 501.17 701.756 504.21L725.143 525.129L739.353 523.492C742.297 523.129 745.216 524.419 746.966 526.823L749.7 530.565L763.55 528.903C770.281 528.095 776.821 531.482 780.046 537.445L808.014 589.158C810.043 592.91 813.445 595.732 817.508 597.031L827.569 600.565C827.599 598.939 827.692 597.327 827.692 595.694C827.692 464.397 728.832 356.251 601.501 341.475ZM708.442 482.789C707.031 483.749 705.418 484.208 703.829 484.208C701.176 484.208 698.571 482.934 696.982 480.571L679.78 455.111C677.224 451.337 678.215 446.2 681.998 443.651C685.764 441.086 690.917 442.095 693.458 445.869L710.66 471.329C713.216 475.103 712.224 480.24 708.442 482.789Z" fill="#BEE86E"/>
<path d="M655.649 767.735C514.264 767.735 399.649 653.12 399.649 511.735C399.649 462.555 413.545 416.633 437.584 377.628C364.458 422.697 315.692 503.487 315.692 595.692C315.692 737.077 430.307 851.692 571.692 851.692C663.897 851.692 744.688 802.926 789.757 729.799C750.751 753.839 704.83 767.735 655.649 767.735Z" fill="#00C3FF"/>
<path d="M683.168 730.918C681.297 730.918 679.41 730.281 677.862 728.983C674.37 726.048 673.918 720.838 676.854 717.346L698.531 691.54C701.458 688.056 706.676 687.596 710.168 690.532C713.66 693.468 714.112 698.677 711.176 702.169L689.499 727.975C687.869 729.918 685.523 730.918 683.168 730.918Z" fill="#BEE86E"/>
<path d="M501.265 349.583L493.918 371.475C492.466 375.798 494.797 380.483 499.12 381.935C499.991 382.225 500.878 382.362 501.749 382.362C505.201 382.362 508.418 380.185 509.58 376.733L520.276 344.863C513.838 346.174 507.517 347.797 501.265 349.583Z" fill="#BEE86E"/>
<path d="M358.566 737.503L365.711 672.589C366.282 667.494 364.454 662.423 360.764 658.864L316.693 617.652C320.441 661.735 335.318 702.634 358.566 737.503Z" fill="#AFD755"/>
<path d="M571.692 339.692C562.431 339.692 553.293 340.211 544.286 341.17L543.426 360.547C541.265 367.039 544.765 374.055 551.257 376.216C552.555 376.651 553.878 376.853 555.176 376.853C560.361 376.853 565.2 373.571 566.926 368.385L576.45 339.812C574.861 339.783 573.288 339.692 571.692 339.692Z" fill="#BEE86E"/>
</g>
<g clip-path="url(#clip1)">
<path d="M609.238 227.308L674.692 361.192L545.573 538.957L322.29 532.809L257.564 403.94L609.238 227.308Z" fill="#3D3973"/>
<path d="M615.804 240.476L674.692 361.192L545.608 538.98L437.067 331.973L615.804 240.476Z" fill="#2E2753"/>
<path d="M651.067 189.327L484.029 427.127L193.535 419.128L360.578 181.337L651.067 189.327Z" fill="#49458A"/>
<path d="M651.067 189.327L484.029 427.127L360.578 181.337L651.067 189.327Z" fill="#3D3973"/>
<path d="M439.214 306.263L429.9 319.356L355.793 423.597L416.905 545.272L390.097 558.737L321.749 422.657L414.662 289.018L439.214 306.263Z" fill="#FFC738"/>
<path d="M439.214 306.263L429.9 319.356L414.662 289.018L439.214 306.263Z" fill="#FE9D4E"/>
<path d="M418.932 582.722C435.9 574.2 442.746 553.537 434.224 536.569C425.702 519.602 405.039 512.755 388.071 521.277C371.103 529.799 364.257 550.463 372.779 567.431C381.301 584.398 401.965 591.245 418.932 582.722Z" fill="#FFF259"/>
</g>
<defs>
<clipPath id="clip0">
<rect width="512" height="512" fill="white" transform="translate(315.692 339.692)"/>
</clipPath>
<clipPath id="clip1">
<rect width="512" height="512" fill="white" transform="translate(111 254.8) rotate(-26.6686)"/>
</clipPath>
</defs>
</svg>
