<svg width="76" height="71" viewBox="0 0 76 71" fill="none" xmlns="http://www.w3.org/2000/svg">
<path d="M72.9975 70.0025C74.1031 70.0012 75.0042 69.1023 74.9374 67.9988C74.6969 64.031 73.761 60.1448 72.0431 56.4611C70.0373 52.1599 67.1032 48.2545 63.4085 44.9679C59.7137 41.6812 55.3305 39.0776 50.5092 37.3058C46.3035 35.7602 41.8361 34.8077 37.303 34.5982C36.2018 34.5473 35.3089 35.4465 35.3086 36.5489L35.2995 68.0433C35.2992 69.149 36.1961 70.0452 37.3018 70.0439L72.9975 70.0025Z" fill="#CAA80A"/>
<path d="M40.9332 70.0303C40.9074 65.3094 40.0473 60.6399 37.9702 56.2897C35.893 51.9394 32.8617 47.9929 29.0494 44.6754C25.2371 41.358 20.7183 38.7346 15.7512 36.9551C10.7841 35.1755 5.46591 34.0786 0.100186 34.1079L0.296122 70.2524L40.9332 70.0303Z" fill="#DE6E79"/>
<path d="M35.1153 33.038C35.1152 34.1434 36.0123 35.0438 37.1167 34.9958C41.6783 34.7974 46.1943 33.9349 50.4145 32.396C55.2513 30.6322 59.6452 28.0497 63.3452 24.7959C67.0452 21.5421 69.9789 17.6808 71.9788 13.4323C73.6886 9.80029 74.6872 5.94613 74.9381 2.03228C75.0087 0.930661 74.1067 0.0354761 73.0028 0.0356123L37.1194 0.0400405C36.0151 0.0401767 35.1198 0.935395 35.1197 2.03976L35.1153 33.038Z" fill="#002C89"/>
<path d="M35.001 0.0352173C30.4047 0.0352172 25.8535 0.940519 21.6071 2.69943C17.3607 4.45835 13.5023 7.03643 10.2522 10.2865C7.00219 13.5365 4.42411 17.3949 2.66519 21.6413C0.906277 25.8877 0.000975868 30.439 0.000976563 35.0352L35.001 35.0352V0.0352173Z" fill="#9835FF"/>
<path d="M70 70C69.9887 65.4037 69.1591 60.8898 67.3898 56.6478C65.6204 52.4057 63.0329 48.5537 59.7749 45.3116C56.5169 42.0696 52.6522 39.5009 48.4015 37.7525C44.1508 36.004 39.5972 35.0239 35.001 35.0352L35.0011 70.0352L70 70Z" fill="#FFDA2C"/>
<path d="M35.001 70.0352C34.9759 65.439 34.2362 60.8922 32.4541 56.6555C30.6721 52.4187 28.073 48.5745 24.8053 45.3422C21.5376 42.1099 17.6652 39.5529 13.4093 37.8172C9.15334 36.0815 4.59718 35.0101 0.000978192 35.0352L0.191878 70.2255L35.001 70.0352Z" fill="#FFA0AA"/>
<path d="M35.001 35.0352C39.5973 35.0306 44.183 34.156 48.4277 32.3928C52.6723 30.6296 56.528 28.0476 59.7748 24.7943C63.0216 21.541 65.5957 17.68 67.3504 13.4318C69.105 9.18365 70.0057 4.63148 70.0011 0.0352132L35.001 0.0352038L35.001 35.0352Z" fill="#0D47C1"/>
</svg>
