<svg width="1080" height="1080" viewBox="0 0 1080 1080" fill="none" xmlns="http://www.w3.org/2000/svg">
<g clip-path="url(#clip0)">
<path d="M678.813 800.783C694.196 777.096 702.258 750.739 702.258 723.795V490.777C702.258 399.131 609.954 324.572 496.496 324.572L455.481 374.268L496.496 423.964C542.104 423.964 579.211 453.937 579.211 490.777V723.795C579.211 760.635 542.104 790.608 496.496 790.608L455.481 840.304L496.496 890C529.852 890 562.482 883.488 591.807 871.063L615.253 890H789.264L678.813 800.783Z" fill="#832F2F"/>
<path d="M413.783 723.795V490.777C413.783 453.937 450.888 423.964 496.498 423.964V324.572C383.04 324.572 290.736 399.131 290.736 490.777V723.795C290.736 815.441 383.04 890 496.498 890V790.608C450.888 790.608 413.783 760.635 413.783 723.795Z" fill="#B82D2D"/>
</g>
<g clip-path="url(#clip1)">
<path d="M609.393 283.65V347.922C609.393 374.759 551.355 389.335 496.6 389.335C441.846 389.335 383.807 374.759 383.807 347.922V283.65C383.807 279.176 388.317 275.367 394.061 275.367H599.139C604.883 275.367 609.393 279.176 609.393 283.65Z" fill="#444444"/>
<path d="M609.393 283.65V347.922C609.393 374.759 551.355 389.335 496.6 389.335V275.367H599.139C604.883 275.367 609.393 279.176 609.393 283.65Z" fill="#292929"/>
<path d="M671.601 265.096C671.601 268.575 668.936 271.722 665.037 272.88L500.291 322.576C499.063 322.908 497.832 323.074 496.601 323.074C495.37 323.074 494.139 322.908 492.91 322.576L328.164 272.88V257.309L492.91 207.614C494.139 207.284 495.37 207.117 496.601 207.117C497.832 207.117 499.063 207.284 500.291 207.614L665.037 257.309C668.936 258.47 671.601 261.617 671.601 265.096Z" fill="#6E6E6E"/>
<path d="M671.6 265.096C671.6 268.575 668.935 271.722 665.037 272.88L500.291 322.576C499.062 322.908 497.831 323.074 496.6 323.074V207.117C497.831 207.117 499.062 207.284 500.291 207.614L665.037 257.309C668.935 258.47 671.6 261.617 671.6 265.096Z" fill="#5A5A5A"/>
<path d="M506.854 265.096C506.854 269.733 502.344 273.379 496.6 273.379H342.108V396.292L361.999 444.663C363.847 448.968 360.974 453.774 355.644 455.098C350.106 456.591 344.365 454.27 342.725 449.963L342.108 448.474C341.288 452.45 336.981 455.597 331.854 455.597C326.11 455.597 321.6 451.951 321.6 447.314V265.096C321.6 260.456 326.11 256.813 331.854 256.813H496.6C502.344 256.813 506.854 260.456 506.854 265.096Z" fill="#FDBF00"/>
</g>
<defs>
<clipPath id="clip0">
<rect width="700" height="565.428" fill="white" transform="translate(190 324.572)"/>
</clipPath>
<clipPath id="clip1">
<rect width="350" height="282.714" fill="white" transform="translate(321.6 190)"/>
</clipPath>
</defs>
</svg>
