<?xml version="1.0"?>
<svg xmlns="http://www.w3.org/2000/svg" xmlns:xlink="http://www.w3.org/1999/xlink" xmlns:svgjs="http://svgjs.com/svgjs" version="1.1" width="512" height="512" x="0" y="0" viewBox="0 0 512 512" style="enable-background:new 0 0 512 512" xml:space="preserve" class=""><g><g xmlns="http://www.w3.org/2000/svg"><circle cx="256" cy="256" fill="#7ea8cd" r="256" data-original="#ffd300" style="" class=""/><g><path d="m512 256c0-19.687-2.228-38.852-6.435-57.263l-137.289-137.289-37.236 45.242-105.512 6.562-51.804-51.804-7.564 42.772 56.16 44.117-17.458 25.387c-89.102 89.103 0 164.552 0 164.552l18.898 30-35.08 12.621-44.956 69.655 55.012 55.012c18.412 4.208 37.577 6.436 57.264 6.436 141.385 0 256-114.615 256-256z" fill="#529ada" data-original="#ff9e00" style="" class=""/></g><g><g><path d="m163.277 266h92.723l10-10-10-10h-92.723z" fill="#ffffff" data-original="#ffffff" style="" class=""/><path d="m163.277 219.47h92.723l10-10-10-10h-92.723z" fill="#dddde1" data-original="#dddde1" style=""/><path d="m163.277 312.53h92.723l10-10-10-10h-92.723z" fill="#dddde1" data-original="#dddde1" style=""/><path d="m163.277 415.31h92.723l10-10-10-10h-92.723z" fill="#ffffff" data-original="#ffffff" style="" class=""/><path d="m163.277 96.69v20h92.723l10-10-10-10z" fill="#ffffff" data-original="#ffffff" style="" class=""/><path d="m256 246h88.557v20h-88.557z" fill="#e3eaee" data-original="#e3eaee" style=""/><path d="m256 199.47h88.557v20h-88.557z" fill="#b8b8be" data-original="#b8b8be" style=""/><path d="m256 292.53h88.557v20h-88.557z" fill="#b8b8be" data-original="#b8b8be" style=""/><g fill="#e3eaee"><path d="m256 395.31h88.557v20h-88.557z" fill="#e3eaee" data-original="#e3eaee" style=""/><path d="m256 96.69h88.557v20h-88.557z" fill="#e3eaee" data-original="#e3eaee" style=""/></g></g><g><path d="m368.276 61.448h-30c0 45.367-36.909 82.276-82.276 82.276v30c61.909 0 112.276-50.367 112.276-112.276z" fill="#005fe0" data-original="#005fe0" style=""/><path d="m256 338.276c-45.367 0-82.276-36.908-82.276-82.275s36.909-82.276 82.276-82.276v-30c-61.909 0-112.276 50.367-112.276 112.276s50.367 112.275 112.276 112.275z" fill="#0081ff" data-original="#0081ff" style="" class=""/><path d="m256 338.276v30c45.367 0 82.276 36.909 82.276 82.276h30c0-61.909-50.367-112.276-112.276-112.276z" fill="#005fe0" data-original="#005fe0" style=""/></g><g><path d="m256 143.724c-45.367 0-82.276-36.909-82.276-82.276h-30c0 61.909 50.367 112.276 112.276 112.276l10-16.747z" fill="#9de1f7" data-original="#9de1f7" style="" class=""/><path d="m256 338.276c-61.909 0-112.276 50.367-112.276 112.276h30c0-45.367 36.909-82.276 82.276-82.276l10-14.773z" fill="#9de1f7" data-original="#9de1f7" style="" class=""/><path d="m368.276 256c0-61.909-50.367-112.276-112.276-112.276v30c45.367 0 82.276 36.909 82.276 82.276s-36.909 82.276-82.276 82.276v30c61.909 0 112.276-50.366 112.276-112.276z" fill="#5ecdf3" data-original="#5ecdf3" style="" class=""/></g></g></g></g></svg>
