<svg id="Capa_1" enable-background="new 0 0 512 512" height="512" viewBox="0 0 512 512" width="512" xmlns="http://www.w3.org/2000/svg"><g><path d="m256 22c-135.31 0-245 109.69-245 245 0 46.183 12.786 89.376 35 126.247h1v-90.024c0-4.963 4.037-9 9-9h184.25c5.016 0 9.643 2.515 12.378 6.726.751 1.154 2.011 1.844 3.372 1.844s2.621-.689 3.372-1.844c2.735-4.211 7.362-6.726 12.378-6.726h184.25c4.963 0 9 4.037 9 9v90.024h1c22.214-36.871 35-80.064 35-126.247 0-135.31-109.69-245-245-245z" fill="#05e39c"/><g fill="#0ed290"><path d="m207.404 229c0-6.065-4.935-11-11-11h-61.404v8.79c0 16.568 13.431 30 30 30h42.404z"/><path d="m412.5 78.518v110.482c0 15.99-13.01 29-29 29h-108.298c-2.938 0-5.7 1.145-7.778 3.222l-35.568 35.568h188.144c16.569 0 30-13.432 30-30v-109.413c-11.039-14.291-23.624-27.325-37.5-38.859z"/></g><path d="m383.5 0h-255c-16.569 0-30 13.431-30 30v159c0 16.569 13.431 30 30 30h67.904c5.523 0 10 4.477 10 10v35.342c0 7.127 8.617 10.697 13.657 5.657l48.07-48.07c1.875-1.875 4.419-2.929 7.071-2.929h108.298c16.569 0 30-13.431 30-30v-159c0-16.569-13.431-30-30-30z" fill="#8379c1"/><path d="m456 293.223h-184.25c-5.538 0-10.409 2.858-13.217 7.181-1.203 1.852-3.863 1.852-5.066 0-2.808-4.322-7.679-7.181-13.217-7.181h-184.25c-5.523 0-10 4.477-10 10v90.024c6.271 10.41 13.3 20.31 21 29.636h1v-103.443c0-2.206 1.794-4 4-4h368c2.206 0 4 1.794 4 4v103.442h1c7.7-9.326 14.729-19.226 21-29.636v-90.024c0-5.522-4.477-9.999-10-9.999z" fill="#fe5694"/><g><path d="m67 319.44c0-2.761 2.239-5 5-5h20v-11.218c0-5.523 4.477-10 10-10h-46c-5.523 0-10 4.477-10 10v90.024c6.272 10.411 13.298 20.316 21 29.642z" fill="#fd3581"/></g><g><path d="m155 189v-159c0-16.568 13.431-30 30-30h-56.5c-16.569 0-30 13.432-30 30v159c0 16.568 13.431 30 30 30h56.5c-16.569 0-30-13.432-30-30z" fill="#6e61b6"/><g><path d="m280.697 60.946c-4.143 0-7.5 3.357-7.5 7.5v57.257l-35.407-61.02c-1.702-2.933-5.158-4.364-8.437-3.479-3.274.881-5.551 3.851-5.551 7.242v85.127c0 4.143 3.357 7.5 7.5 7.5s7.5-3.357 7.5-7.5v-57.258l35.412 61.019c1.299 2.234 3.712 3.739 6.482 3.739 4.143 0 7.5-3.357 7.5-7.5v-85.127c.001-4.142-3.356-7.5-7.499-7.5z" fill="#fff"/><path d="m205.394 118.51c4.143 0 7.5-3.357 7.5-7.5s-3.357-7.5-7.5-7.5h-41.894v-27.564h41.894c4.143 0 7.5-3.357 7.5-7.5s-3.357-7.5-7.5-7.5h-49.394c-4.143 0-7.5 3.357-7.5 7.5v85.127c0 4.143 3.357 7.5 7.5 7.5h49.394c4.143 0 7.5-3.357 7.5-7.5s-3.357-7.5-7.5-7.5h-41.894v-27.563z" fill="#fff"/><g><g><path d="m339.589 161.073h-16.571c-13.185 0-23.911-10.727-23.911-23.911v-52.305c0-13.185 10.727-23.911 23.911-23.911h32.982c4.143 0 7.5 3.357 7.5 7.5s-3.357 7.5-7.5 7.5h-32.982c-4.914 0-8.911 3.997-8.911 8.911v52.305c0 4.914 3.997 8.911 8.911 8.911h16.571c4.914 0 8.911-3.997 8.911-8.911v-21.927h-13.454c-4.143 0-7.5-3.357-7.5-7.5s3.357-7.5 7.5-7.5h20.954c4.143 0 7.5 3.357 7.5 7.5v29.427c0 13.185-10.727 23.911-23.911 23.911z" fill="#fff"/></g></g></g></g><g><path d="m440 314.44h-368c-2.761 0-5 2.239-5 5v103.466c44.937 54.414 112.918 89.094 189 89.094s144.063-34.68 189-89.093v-103.467c0-2.761-2.239-5-5-5z" fill="#f2fbff"/></g><g><path d="m67 319.44v103.466c44.937 54.414 112.918 89.094 189 89.094v-197.56h-184c-2.761 0-5 2.239-5 5z" fill="#c8effe"/></g><g fill="#99e6fc"><path d="m91 319.44c0-2.761 2.239-5 5-5h-24c-2.761 0-5 2.239-5 5v103.466c7.394 8.954 15.424 17.36 24 25.179z"/><g><g><path d="m292.5 358.29h112c4.143 0 7.5-3.357 7.5-7.5s-3.357-7.5-7.5-7.5h-112c-4.143 0-7.5 3.357-7.5 7.5s3.357 7.5 7.5 7.5z"/><path d="m404.5 376.29h-23.5c-4.143 0-7.5 3.357-7.5 7.5s3.357 7.5 7.5 7.5h23.5c4.143 0 7.5-3.357 7.5-7.5s-3.357-7.5-7.5-7.5z"/><path d="m292.5 391.29h64.5c4.143 0 7.5-3.357 7.5-7.5s-3.357-7.5-7.5-7.5h-64.5c-4.143 0-7.5 3.357-7.5 7.5s3.357 7.5 7.5 7.5z"/><path d="m404.5 409.29h-112c-4.143 0-7.5 3.357-7.5 7.5s3.357 7.5 7.5 7.5h112c4.143 0 7.5-3.357 7.5-7.5s-3.357-7.5-7.5-7.5z"/><path d="m356.5 442.29h-64c-4.143 0-7.5 3.357-7.5 7.5s3.357 7.5 7.5 7.5h64c4.143 0 7.5-3.357 7.5-7.5s-3.357-7.5-7.5-7.5z"/></g><g><path d="m107.5 358.29h17.5c4.143 0 7.5-3.357 7.5-7.5s-3.357-7.5-7.5-7.5h-17.5c-4.143 0-7.5 3.357-7.5 7.5s3.357 7.5 7.5 7.5z"/><path d="m147 358.29h72.5c4.143 0 7.5-3.357 7.5-7.5s-3.357-7.5-7.5-7.5h-72.5c-4.143 0-7.5 3.357-7.5 7.5s3.357 7.5 7.5 7.5z"/><path d="m219.5 376.29h-112c-4.143 0-7.5 3.357-7.5 7.5s3.357 7.5 7.5 7.5h112c4.143 0 7.5-3.357 7.5-7.5s-3.357-7.5-7.5-7.5z"/><path d="m219.5 409.29h-112c-4.143 0-7.5 3.357-7.5 7.5s3.357 7.5 7.5 7.5h112c4.143 0 7.5-3.357 7.5-7.5s-3.357-7.5-7.5-7.5z"/><path d="m219.5 442.29h-64c-4.143 0-7.5 3.357-7.5 7.5s3.357 7.5 7.5 7.5h64c4.143 0 7.5-3.357 7.5-7.5s-3.357-7.5-7.5-7.5z"/></g></g></g></g></svg>