<?xml version="1.0"?>
<svg xmlns="http://www.w3.org/2000/svg" xmlns:xlink="http://www.w3.org/1999/xlink" xmlns:svgjs="http://svgjs.com/svgjs" version="1.1" width="512" height="512" x="0" y="0" viewBox="0 0 512 512" style="enable-background:new 0 0 512 512" xml:space="preserve" class=""><g><g xmlns="http://www.w3.org/2000/svg"><path d="m305.027 496.093c-15.841 3.218-32.236 4.907-49.027 4.907s-33.186-1.689-49.027-4.907c-12.581-55.861-62.195-95.544-119.456-95.544h-29.352c-29.656-40.519-47.165-90.489-47.165-144.549 0-133.794 107.247-242.539 240.463-244.958 137.276-2.493 249.217 107.078 249.536 244.375.126 54.283-17.402 104.467-47.164 145.132h-37.769c-54.086 0-100.477 38.58-110.337 91.76z" fill="#7ea8cd" data-original="#3f97a4" style="" class=""/><path d="m110.472 402.709h115.545c5.789 0 10.481-4.693 10.481-10.481v-134.402c0-5.789 4.693-10.481 10.481-10.481h31.622c5.789 0 10.481-4.693 10.481-10.481v-169.809c0-5.789 4.693-10.481 10.481-10.481s10.481 4.693 10.481 10.481v69.327c0 5.789 4.693 10.481 10.481 10.481h9.105c5.789 0 10.481-4.693 10.481-10.481v-6.142c0-5.789 4.693-10.481 10.481-10.481h30.164c5.789 0 10.481 4.693 10.481 10.481v30.421c0 5.789 4.693 10.481 10.481 10.481h17.463c5.789 0 10.481 4.693 10.481 10.481v140.437h-8.467v78.489h-5.134c-54.086 0-100.477 38.58-110.337 91.76l-.702 3.785c-15.836 3.217-32.231 4.906-49.022 4.906s-33.186-1.689-49.027-4.907c-10.863-48.233-49.336-84.404-96.501-93.384z" fill="#5b92c3" data-original="#2c6a73" style="" class=""/><path d="m320.855 45.349 14.156-4.146c1.154-.338 2.226.734 1.888 1.888l-4.146 14.156c-.082.279-.082.576 0 .855l4.146 14.156c.338 1.154-.734 2.226-1.888 1.888l-14.156-4.146c-.279-.082-.576-.082-.855 0l-14.156 4.146c-1.154.338-2.226-.734-1.888-1.888l4.146-14.156c.082-.279.082-.576 0-.855l-4.146-14.156c-.338-1.154.734-2.226 1.888-1.888l14.156 4.146c.279.081.576.081.855 0z" fill="#eac23f" data-original="#eac23f" style=""/><path d="m404.362 113.238 18.606-5.45c1.517-.444 2.926.964 2.482 2.482l-5.45 18.606c-.108.367-.108.757 0 1.124l5.45 18.606c.444 1.517-.964 2.926-2.482 2.482l-18.606-5.45c-.367-.108-.757-.108-1.124 0l-18.606 5.45c-1.517.444-2.926-.964-2.482-2.482l5.45-18.606c.108-.367.108-.757 0-1.124l-5.45-18.606c-.444-1.517.964-2.926 2.482-2.482l18.606 5.45c.367.108.757.108 1.124 0z" fill="#95ced6" data-original="#95ced6" style="" class=""/><path d="m58.165 297.417h148.808v198.676c-60.814-12.352-113.447-47.229-148.808-95.544zm246.862 198.676c60.814-12.352 113.447-47.229 148.808-95.544v-101.132h-148.808z" fill="#f1de96" data-original="#f1de96" style="" class=""/><path d="m464.464 258.082c0 16.306-13.219 29.525-29.525 29.525-6.647 0-12.781-2.197-17.715-5.903-4.935 3.707-11.068 5.903-17.715 5.903s-12.781-2.197-17.715-5.903c-4.935 3.707-11.068 5.903-17.715 5.903-8.047 0-15.342-3.219-20.668-8.44-5.326 5.221-12.621 8.44-20.668 8.44-16.306 0-29.525-13.219-29.525-29.525 0-16.307 13.219-29.525 29.525-29.525 8.047 0 15.342 3.219 20.668 8.44 5.326-5.221 12.621-8.44 20.668-8.44 6.647 0 12.781 2.197 17.715 5.903 4.935-3.707 11.068-5.903 17.715-5.903s12.781 2.197 17.715 5.903c4.935-3.707 11.068-5.903 17.715-5.903 16.306-.001 29.525 13.218 29.525 29.525zm-276.387-192.651c-6.647 0-12.781 2.196-17.715 5.903-4.935-3.707-11.068-5.903-17.715-5.903s-12.781 2.196-17.715 5.903c-4.935-3.707-11.068-5.903-17.715-5.903-8.047 0-15.342 3.219-20.668 8.44-5.326-5.221-12.621-8.44-20.668-8.44-16.307 0-29.526 13.219-29.526 29.525s13.219 29.525 29.526 29.525c8.047 0 15.342-3.22 20.668-8.44 5.326 5.221 12.621 8.44 20.668 8.44 6.647 0 12.781-2.197 17.715-5.903 4.935 3.707 11.068 5.903 17.715 5.903s12.781-2.197 17.715-5.903c4.935 3.707 11.068 5.903 17.715 5.903 16.306 0 29.525-13.219 29.525-29.525s-13.219-29.525-29.525-29.525z" fill="#edd578" data-original="#edd578" style="" class=""/><path d="m446.359 199.031c1.58 3.617 2.457 7.611 2.457 11.81 0 16.306-13.219 29.525-29.525 29.525-7.681 0-14.677-2.934-19.93-7.741-5.252 4.808-12.248 7.741-19.93 7.741-7.681 0-14.678-2.934-19.93-7.741-5.252 4.808-12.248 7.741-19.93 7.741-16.306 0-29.525-13.219-29.525-29.525 0-4.199.877-8.194 2.457-11.81zm-380.718-163.125c-1.58 3.617-2.457 7.611-2.457 11.81 0 16.306 13.219 29.525 29.525 29.525 7.681 0 14.677-2.934 19.93-7.741 5.252 4.808 12.248 7.741 19.93 7.741s14.678-2.934 19.93-7.741c5.252 4.808 12.248 7.741 19.93 7.741 16.306 0 29.525-13.219 29.525-29.525 0-4.199-.877-8.194-2.457-11.81z" fill="#e9cc5a" data-original="#e9cc5a" style="" class=""/><path d="m387.348 426.021c-36.72 0-66.487-29.767-66.487-66.486v-51.035h132.973v51.034c.001 36.72-29.766 66.487-66.486 66.487zm-246.861-54.688c-36.72 0-66.487-29.767-66.487-66.486v-168.555h132.973v168.555c0 36.719-29.767 66.486-66.486 66.486z" fill="#f9f1d2" data-original="#f9f1d2" style="" class=""/><path d="m218.783 133.93c0 7.827-6.345 14.172-14.172 14.172h-128.731v273.978c-6.3-6.829-12.217-14.018-17.715-21.531v-252.643c-6.703-1.124-11.81-6.954-11.81-13.976 0-7.827 6.345-14.172 14.172-14.172h144.084c7.827 0 14.172 6.345 14.172 14.172zm232.69 148.953h-144.084c-7.827 0-14.172 6.345-14.172 14.172 0 7.022 5.107 12.852 11.81 13.976v185.062c5.987-1.216 11.895-2.65 17.715-4.294v-180.572h128.731c7.827 0 14.172-6.345 14.172-14.172 0-7.827-6.345-14.172-14.172-14.172zm-310.986-111.741c-4.142 0-7.5 3.358-7.5 7.5v289.283c4.895 2.847 9.897 5.53 15 8.041v-297.324c0-4.142-3.358-7.5-7.5-7.5zm247.577 155.608c-4.142 0-7.5 3.358-7.5 7.5v132.765c5.123-3.031 10.126-6.243 15-9.627v-123.138c0-4.142-3.357-7.5-7.5-7.5zm-210.109-155.608c-4.142 0-7.5 3.358-7.5 7.5v307.009c4.927 1.836 9.929 3.518 15 5.04v-312.049c0-4.142-3.358-7.5-7.5-7.5zm-74.937 0c-4.142 0-7.5 3.358-7.5 7.5v262.486c4.838 4.197 9.841 8.208 15 12.021v-274.507c0-4.142-3.358-7.5-7.5-7.5zm322.515 155.608c-4.142 0-7.5 3.358-7.5 7.5v105.521c5.201-4.589 10.206-9.396 15-14.406v-91.115c0-4.142-3.358-7.5-7.5-7.5zm-74.937 0c-4.142 0-7.5 3.358-7.5 7.5v150.817c5.083-1.934 10.085-4.032 15-6.288v-144.529c0-4.142-3.358-7.5-7.5-7.5z" fill="#edd578" data-original="#edd578" style="" class=""/><path d="m83.572 133.93c0 7.827 6.345 14.172 14.172 14.172h-37.217c-7.827 0-14.172-6.345-14.172-14.172 0-7.827 6.345-14.172 14.172-14.172h37.217c-7.827 0-14.172 6.345-14.172 14.172zm246.862 163.125c0-7.827 6.345-14.172 14.172-14.172h-37.217c-7.827 0-14.172 6.345-14.172 14.172s6.345 14.172 14.172 14.172h37.217c-7.827 0-14.172-6.344-14.172-14.172z" fill="#edd578" data-original="#edd578" style="" class=""/><path d="m469.217 292.331h-179.572c-7.811 0-14.143-6.332-14.143-14.143v-.058c0-7.811 6.332-14.143 14.143-14.143h179.572c7.811 0 14.143 6.332 14.143 14.143v.058c0 7.811-6.332 14.143-14.143 14.143zm-232.719-177.268v-.058c0-7.811-6.332-14.143-14.143-14.143h-179.572c-7.811 0-14.143 6.332-14.143 14.143v.058c0 7.811 6.332 14.143 14.143 14.143h179.572c7.811 0 14.143-6.332 14.143-14.143z" fill="#f5e8b4" data-original="#f5e8b4" style="" class=""/><path d="m469.217 292.331h-155.952c-7.811 0-14.143-6.332-14.143-14.143v-.058c0-7.811 6.332-14.143 14.143-14.143h155.952c7.811 0 14.143 6.332 14.143 14.143v.058c0 7.811-6.332 14.143-14.143 14.143zm-232.719-177.268v-.058c0-7.811-6.332-14.143-14.143-14.143h-155.952c-7.811 0-14.143 6.332-14.143 14.143v.058c0 7.811 6.332 14.143 14.143 14.143h155.952c7.811 0 14.143-6.332 14.143-14.143z" fill="#f9f1d2" data-original="#f9f1d2" style="" class=""/><path d="m226.755 106.767c-21.198 0-38.383-17.185-38.383-38.383 0-5.231 1.047-10.218 2.942-14.763h-117.49c1.895 4.545 2.943 9.531 2.943 14.763 0 21.199-17.185 38.383-38.383 38.383-21.199 0-38.384-17.185-38.384-38.384 0-21.198 17.185-38.383 38.383-38.383 1.094 0 2.177.046 3.248.136v-.136h181.876v.136c1.071-.09 2.154-.136 3.248-.136 21.198 0 38.383 17.185 38.383 38.383 0 21.199-17.185 38.384-38.383 38.384zm246.862 86.359c-1.094 0-187.278 0-188.372 0-21.198 0-38.383 17.185-38.383 38.383s17.185 38.383 38.383 38.383 38.383-17.185 38.383-38.383c0-5.231-1.047-10.218-2.943-14.763h117.491c-1.895 4.544-2.943 9.531-2.943 14.763 0 21.198 17.185 38.383 38.383 38.383s38.383-17.185 38.383-38.383-17.184-38.383-38.382-38.383z" fill="#f5e8b4" data-original="#f5e8b4" style="" class=""/><path d="m307.684 231.509c0 12.393-10.046 22.439-22.439 22.439s-22.439-10.046-22.439-22.439 10.046-22.439 22.439-22.439 22.439 10.046 22.439 22.439zm165.933-22.439c-12.393 0-22.439 10.046-22.439 22.439s10.046 22.439 22.439 22.439 22.439-10.046 22.439-22.439-10.046-22.439-22.439-22.439zm-435.234-163.126c-12.393 0-22.439 10.046-22.439 22.439s10.046 22.44 22.439 22.44 22.439-10.046 22.439-22.439-10.046-22.44-22.439-22.44zm188.372 0c-12.393 0-22.439 10.046-22.439 22.439s10.046 22.439 22.439 22.439 22.439-10.046 22.439-22.439-10.046-22.439-22.439-22.439z" fill="#edd578" data-original="#edd578" style="" class=""/><path d="m310.341 223.832c0 5.87-4.759 10.629-10.629 10.629s-10.629-4.759-10.629-10.629 4.759-10.629 10.629-10.629c5.871 0 10.629 4.759 10.629 10.629zm148.809-10.629c-5.87 0-10.629 4.759-10.629 10.629s4.759 10.629 10.629 10.629 10.629-4.759 10.629-10.629-4.759-10.629-10.629-10.629zm-406.3-163.125c-5.87 0-10.629 4.759-10.629 10.629s4.759 10.629 10.629 10.629 10.63-4.759 10.63-10.629-4.759-10.629-10.63-10.629zm159.438 0c-5.87 0-10.629 4.759-10.629 10.629s4.759 10.629 10.629 10.629 10.629-4.759 10.629-10.629-4.759-10.629-10.629-10.629z" fill="#f5e8b4" data-original="#f5e8b4" style="" class=""/><path d="m341.275 158.433 7.543 20.386c.203.547.634.979 1.182 1.182l20.386 7.543c1.741.644 1.741 3.107 0 3.751l-20.386 7.544c-.547.203-.979.634-1.182 1.182l-7.543 20.386c-.644 1.741-3.107 1.741-3.751 0l-7.543-20.386c-.203-.547-.634-.979-1.182-1.182l-20.386-7.543c-1.741-.644-1.741-3.107 0-3.751l20.386-7.545c.547-.203.979-.634 1.182-1.182l7.543-20.386c.644-1.74 3.107-1.74 3.751.001z" fill="#fff5f5" data-original="#fff5f5" style="" class=""/></g></g></svg>
