<svg width="512" height="512" viewBox="0 0 512 512" fill="none" xmlns="http://www.w3.org/2000/svg">
<g clip-path="url(#clip0)">
<path d="M501.873 266.126C501.873 342.509 467.043 410.757 412.398 455.854C369.897 490.929 315.409 494.838 256 494.838C120.208 494.838 29.4277 405.12 29.4277 269.328C29.4277 142.298 106.459 34.5665 230.057 21.6044C238.582 20.7103 247.238 20.2517 256 20.2517C391.792 20.2527 501.873 130.334 501.873 266.126Z" fill="#7EA8CD"/>
<path d="M451.089 348.065C445.825 333.535 431.906 323.152 415.558 323.152C414.287 323.152 413.023 323.216 411.771 323.341C398.038 324.717 384.169 323.208 371.12 318.712L365.676 316.835C355.828 313.443 349.218 304.174 349.218 293.758C349.218 289.812 346.177 286.372 342.233 286.254C338.152 286.132 334.806 289.403 334.806 293.457V297.766C334.806 301.896 330.738 304.797 326.832 303.453C323.785 302.403 322.107 299.136 323.028 296.047L387.252 80.8035C387.762 79.0952 386.845 77.288 385.166 76.6896L382.716 75.8165C381.036 75.2191 380.12 73.4109 380.63 71.7036C381.158 69.9303 380.15 68.0652 378.378 67.5357L377.365 67.234C375.592 66.7055 374.584 64.8394 375.113 63.0662L375.816 60.7135C376.344 58.9403 375.336 57.0751 373.564 56.5457L261.356 23.065C254.812 21.113 247.97 20.3048 241.154 20.7134C221.279 21.9022 205.705 25.2389 196.477 27.5336V27.5236C191.576 28.7424 185.637 30.4357 181.005 31.9172C181.006 31.9202 181.007 31.9242 181.009 31.9272C179.649 32.3628 178.294 32.8093 176.944 33.2669C176.944 33.2579 176.946 33.2489 176.946 33.2399C171.749 35.0031 164.848 37.6175 158.625 40.3048L158.623 40.3098C154.736 41.9882 150.902 43.7684 147.122 45.6385L147.114 45.6355C144.865 46.7484 141.072 48.7165 139.735 49.4348C139.737 49.4397 139.74 49.4437 139.742 49.4477C137.084 50.8773 134.455 52.3528 131.857 53.8763C131.859 53.8713 131.862 53.8663 131.864 53.8613C56.3429 98.1133 7.77332 180.613 10.2139 272.761C13.7574 406.508 124.769 513.35 258.557 511.986C316.606 511.395 369.831 490.684 411.6 456.496C433.796 438.329 417.805 402.616 389.457 406.985C389.02 407.053 388.581 407.118 388.142 407.183C382.256 408.058 380.234 399.608 385.861 397.67C386.166 397.565 386.467 397.461 386.765 397.358C392.615 395.343 398.914 395.414 404.844 397.178C423.541 402.74 444.164 392.921 451.089 373.801H460.779C471.037 373.801 480.267 367.572 484.105 358.058L484.147 357.953C484.495 357.089 484.674 356.166 484.674 355.235C484.674 351.274 481.463 348.064 477.503 348.064H451.089V348.065ZM327.405 382.762L313.889 387.418C305.442 390.328 297.243 382.465 299.797 373.904L307.781 347.145C310.025 339.625 318.081 335.487 325.501 338.043C331.068 339.961 334.806 345.201 334.806 351.09V372.384C334.805 377.068 331.833 381.236 327.405 382.762V382.762ZM378.03 365.32L359.608 371.667C354.519 373.42 349.218 369.64 349.218 364.257V346.216L378.075 356.158C377.692 359.221 377.681 362.263 378.03 365.32V365.32Z" fill="#529ADA"/>
<path d="M63.6484 353.208L68.2668 337.732L359.582 78.4229L368.023 81.4289L268.676 414.384L63.6484 353.208Z" fill="#5B92C3"/>
<path d="M57.0742 343.947L59.6137 335.435H77.7536L172.966 15.9272L361.448 72.1662L262.101 405.122L57.0742 343.947Z" fill="white"/>
<path d="M225.842 22.1499C225.842 22.1499 143.849 171.18 133.914 201.184V357.319L257.287 394.131L356.634 61.176L225.842 22.1499Z" fill="#96C0E4"/>
<path d="M295.959 138.345C297.252 134.014 294.788 129.455 290.457 128.162L236.283 111.998C227.018 109.234 219.243 102.878 214.693 94.346C210.143 85.8145 209.193 75.8175 212.059 66.5827L225.842 22.1509L151.606 0L52.2588 332.955L257.287 394.131L265.515 366.552L166.615 337.042C157.355 334.279 149.585 327.929 145.033 319.407C140.481 310.883 139.526 300.894 142.379 291.662L170.859 199.52C176.722 180.55 196.77 169.843 215.797 175.52L271.379 192.105C275.71 193.397 280.269 190.934 281.561 186.602L295.959 138.345ZM162.977 10.3936C169.979 10.3936 169.967 21.2578 162.977 21.2578C155.974 21.2578 155.985 10.3936 162.977 10.3936ZM70.8962 330.15C63.8942 330.15 63.9062 319.286 70.8962 319.286C77.8983 319.287 77.8863 330.15 70.8962 330.15ZM77.7534 307.621C70.7514 307.621 70.7634 296.757 77.7534 296.757C84.7554 296.756 84.7434 307.621 77.7534 307.621ZM84.2839 285.743C77.2819 285.743 77.2938 274.879 84.2839 274.879C91.2859 274.879 91.2739 285.743 84.2839 285.743ZM90.4877 263.866C83.4857 263.866 83.4977 253.002 90.4877 253.002C97.4897 253.002 97.4777 263.866 90.4877 263.866ZM96.6915 241.662C89.6895 241.662 89.7015 230.798 96.6915 230.798C103.694 230.798 103.682 241.662 96.6915 241.662ZM103.549 219.785C96.5467 219.785 96.5587 208.922 103.549 208.922C110.551 208.921 110.539 219.785 103.549 219.785ZM110.406 197.581C103.404 197.581 103.416 186.718 110.406 186.718C117.408 186.718 117.396 197.581 110.406 197.581ZM116.61 175.704C109.608 175.704 109.62 164.84 116.61 164.84C123.612 164.841 123.6 175.704 116.61 175.704ZM123.467 153.827C116.465 153.827 116.477 142.963 123.467 142.963C130.469 142.964 130.457 153.827 123.467 153.827ZM130.324 131.623C123.322 131.623 123.334 120.759 130.324 120.759C137.325 120.76 137.314 131.623 130.324 131.623ZM136.528 109.419C129.526 109.419 129.538 98.5548 136.528 98.5548C143.53 98.5558 143.518 109.419 136.528 109.419ZM143.058 87.5418C136.056 87.5418 136.068 76.6786 143.058 76.6786C150.06 76.6786 150.048 87.5418 143.058 87.5418ZM149.589 65.3389C142.587 65.3389 142.599 54.4747 149.589 54.4747C156.591 54.4747 156.579 65.3389 149.589 65.3389ZM156.119 43.4617C149.117 43.4617 149.129 32.5975 156.119 32.5975C163.121 32.5975 163.109 43.4617 156.119 43.4617Z" fill="#5B92C4"/>
<path d="M159.875 18.3287C159.542 18.3287 159.203 18.2807 158.867 18.1808L134.966 11.0499C133.103 10.4935 132.043 8.53244 132.599 6.6683C133.155 4.80616 135.107 3.74521 136.981 4.30066L160.882 11.4316C162.745 11.988 163.805 13.949 163.249 15.8132C162.792 17.3407 161.391 18.3287 159.875 18.3287Z" fill="#2D56A1"/>
<path d="M153.299 40.3638C152.966 40.3638 152.628 40.3158 152.292 40.2159L128.392 33.085C126.528 32.5286 125.468 30.5676 126.023 28.7034C126.581 26.8403 128.537 25.7793 130.405 26.3358L154.305 33.4667C156.169 34.0231 157.229 35.9842 156.674 37.8483C156.217 39.3758 154.816 40.3638 153.299 40.3638Z" fill="#2D56A1"/>
<path d="M146.725 62.3998C146.392 62.3998 146.053 62.3519 145.717 62.252L121.817 55.1211C119.953 54.5646 118.893 52.6036 119.449 50.7394C120.005 48.8763 121.957 47.8163 123.832 48.3718L147.732 55.5027C149.595 56.0591 150.655 58.0202 150.099 59.8843C149.642 61.4118 148.242 62.3998 146.725 62.3998V62.3998Z" fill="#2D56A1"/>
<path d="M140.15 84.4357C139.817 84.4357 139.479 84.3878 139.142 84.2879L115.242 77.157C113.379 76.6005 112.319 74.6395 112.874 72.7754C113.432 70.9132 115.385 69.8513 117.257 70.4077L141.157 77.5386C143.02 78.0951 144.08 80.0561 143.525 81.9202C143.067 83.4477 141.667 84.4357 140.15 84.4357V84.4357Z" fill="#2D56A1"/>
<path d="M133.575 106.471C133.242 106.471 132.904 106.423 132.568 106.323L108.668 99.1921C106.804 98.6357 105.744 96.6746 106.299 94.8105C106.855 92.9484 108.813 91.8864 110.681 92.4429L134.581 99.5738C136.445 100.13 137.505 102.091 136.949 103.955C136.492 105.484 135.092 106.471 133.575 106.471V106.471Z" fill="#2D56A1"/>
<path d="M127.001 128.507C126.668 128.507 126.329 128.459 125.993 128.359L102.092 121.228C100.229 120.672 99.1694 118.711 99.7248 116.847C100.282 114.984 102.235 113.923 104.107 114.479L128.008 121.61C129.871 122.166 130.931 124.127 130.375 125.991C129.918 127.52 128.517 128.507 127.001 128.507Z" fill="#2D56A1"/>
<path d="M120.425 150.543C120.092 150.543 119.754 150.495 119.417 150.395L95.5168 143.264C93.6536 142.708 92.5937 140.747 93.1491 138.883C93.7046 137.019 95.6596 135.959 97.5318 136.515L121.432 143.646C123.295 144.202 124.355 146.163 123.8 148.028C123.343 149.555 121.942 150.543 120.425 150.543Z" fill="#2D56A1"/>
<path d="M113.85 172.579C113.517 172.579 113.178 172.531 112.842 172.431L88.9425 165.3C87.0794 164.744 86.0195 162.783 86.5749 160.919C87.1324 159.056 89.0854 157.995 90.9575 158.551L114.857 165.682C116.72 166.238 117.78 168.199 117.224 170.064C116.767 171.591 115.366 172.579 113.85 172.579Z" fill="#2D56A1"/>
<path d="M107.274 194.614C106.941 194.614 106.603 194.566 106.267 194.466L82.3669 187.335C80.5027 186.779 79.4428 184.818 79.9982 182.954C80.5557 181.091 82.5127 180.03 84.3799 180.586L108.28 187.717C110.144 188.273 111.204 190.234 110.649 192.099C110.192 193.627 108.792 194.614 107.274 194.614Z" fill="#2D56A1"/>
<path d="M100.699 216.65C100.367 216.65 100.028 216.602 99.6914 216.502L75.7912 209.371C73.928 208.815 72.8681 206.854 73.4235 204.99C73.981 203.128 75.932 202.066 77.8062 202.622L101.706 209.753C103.57 210.309 104.629 212.27 104.074 214.135C103.616 215.663 102.216 216.65 100.699 216.65Z" fill="#2D56A1"/>
<path d="M94.1242 238.686C93.7915 238.686 93.4528 238.638 93.1162 238.538L69.216 231.407C67.3528 230.851 66.2929 228.89 66.8483 227.026C67.4058 225.164 69.3568 224.102 71.231 224.658L95.1312 231.789C96.9943 232.346 98.0543 234.307 97.4988 236.171C97.0423 237.699 95.6417 238.686 94.1242 238.686Z" fill="#2D56A1"/>
<path d="M87.5495 260.722C87.2168 260.722 86.8781 260.674 86.5425 260.575L62.6423 253.444C60.7781 252.887 59.7182 250.926 60.2736 249.062C60.8311 247.2 62.7881 246.138 64.6553 246.694L88.5555 253.825C90.4196 254.382 91.4795 256.343 90.9241 258.207C90.4666 259.734 89.067 260.722 87.5495 260.722V260.722Z" fill="#2D56A1"/>
<path d="M80.9753 282.758C80.6426 282.758 80.3039 282.71 79.9673 282.61L56.0671 275.48C54.2039 274.923 53.144 272.962 53.6994 271.098C54.2569 269.235 56.2079 268.174 58.0821 268.73L81.9823 275.861C83.8454 276.417 84.9053 278.379 84.3499 280.243C83.8923 281.77 82.4917 282.758 80.9753 282.758V282.758Z" fill="#2D56A1"/>
<path d="M74.3996 304.793C74.0669 304.793 73.7282 304.745 73.3916 304.645L49.4914 297.515C47.6282 296.958 46.5683 294.997 47.1237 293.133C47.6812 291.27 49.6322 290.209 51.5064 290.765L75.4066 297.896C77.2697 298.453 78.3296 300.414 77.7742 302.278C77.3167 303.806 75.9171 304.793 74.3996 304.793V304.793Z" fill="#2D56A1"/>
<path d="M67.8243 326.829C67.4917 326.829 67.153 326.781 66.8164 326.682L42.9172 319.551C41.054 318.995 39.9941 317.033 40.5495 315.169C41.107 313.306 43.058 312.245 44.9322 312.801L68.8313 319.932C70.6945 320.488 71.7544 322.45 71.199 324.314C70.7414 325.841 69.3408 326.829 67.8243 326.829V326.829Z" fill="#2D56A1"/>
<path d="M165.409 150.805C161.077 149.512 158.614 144.954 159.906 140.622L174.305 92.366C175.598 88.0343 180.156 85.5708 184.488 86.8635L288.397 117.868C292.729 119.16 295.193 123.719 293.9 128.05L279.501 176.306C278.209 180.638 273.65 183.102 269.318 181.809L165.409 150.805Z" fill="white"/>
<path d="M189.458 131.216C188.619 131.992 187.673 132.037 186.858 131.794C186.087 131.564 185.351 131.063 185.129 129.924L183.283 121.253L178.361 137.753C177.95 139.124 176.075 139.311 174.404 138.813C172.732 138.314 171.265 137.129 171.676 135.759L179.411 109.831C180.141 107.389 182.08 106.988 183.752 107.487C186.151 108.203 187.102 108.767 187.939 112.376L190.05 121.406L196.766 115.009C199.443 112.448 200.55 112.498 202.95 113.214C204.663 113.726 206.022 115.111 205.295 117.554L197.558 143.48C197.149 144.852 195.273 145.038 193.602 144.54C191.93 144.041 190.464 142.857 190.873 141.486L195.668 125.415L189.458 131.216Z" fill="#FF5551"/>
<path d="M200.253 143.539C200.291 143.41 200.385 143.251 200.479 143.093L216.249 119.33C217.168 117.97 219.314 117.818 221.285 118.406C223.257 118.994 224.968 120.298 224.992 121.938L225.205 150.471C225.197 150.656 225.188 150.84 225.151 150.967C224.677 152.554 221.89 152.982 220.048 152.432C218.976 152.112 218.22 151.513 218.232 150.537L218.374 144.745L209.332 142.046L206.277 146.968C205.752 147.792 204.792 147.88 203.72 147.56C201.879 147.009 199.78 145.124 200.253 143.539V143.539ZM218.495 139.18L218.793 126.762L212.238 137.314L218.495 139.18Z" fill="#FF5551"/>
<path d="M252.028 127.857C253.442 128.28 253.582 130.001 253.16 131.415C252.674 133.043 251.522 134.24 250.237 133.856L244.323 132.092L237.379 155.362C236.971 156.734 235.096 156.921 233.423 156.422C231.751 155.924 230.285 154.739 230.694 153.368L237.638 130.098L231.725 128.334C230.439 127.95 230.132 126.319 230.618 124.691C231.041 123.276 232.1 121.912 233.515 122.335L252.028 127.857Z" fill="#FF5551"/>
<path d="M266.646 151.447L258.118 148.903L254.654 160.516C254.243 161.888 252.368 162.074 250.696 161.576C249.025 161.077 247.558 159.893 247.967 158.522L256.099 131.266C256.522 129.853 258.372 129.751 260.044 130.25C261.716 130.749 263.207 131.848 262.786 133.261L259.653 143.761L268.18 146.305L271.313 135.806C271.735 134.392 273.586 134.29 275.257 134.79C276.93 135.288 278.42 136.387 277.999 137.801L269.867 165.056C269.456 166.428 267.582 166.614 265.91 166.115C264.238 165.617 262.771 164.432 263.181 163.061L266.646 151.447Z" fill="#FF5551"/>
<path d="M216.571 324.238C205.472 324.238 202.16 314.576 202.16 303.476C202.16 292.377 205.472 284.044 216.571 284.044C227.67 284.044 236.668 293.042 236.668 304.141C236.668 315.24 227.67 324.238 216.571 324.238Z" fill="#FF8500"/>
<path d="M211.388 304.142C211.388 295.681 216.624 288.454 224.028 285.491C220.785 284.193 217.14 283.689 213.31 284.311C204.399 285.759 197.42 293.192 196.568 302.18C195.432 314.161 204.825 324.239 216.571 324.239H216.65C219.196 324.229 220.293 321.012 218.364 319.351C214.093 315.669 211.388 310.224 211.388 304.142V304.142Z" fill="#FA690F"/>
<path d="M191.599 302.52L369.698 363.882L373.998 351.399L204.802 293.104C198.335 290.876 191.599 295.681 191.599 302.52V302.52Z" fill="#6EE1FF"/>
<path d="M211.064 295.532L176.825 283.465C169.931 281.089 162.416 284.752 160.042 291.646L194.375 303.476C196.842 296.739 204.25 293.185 211.064 295.532Z" fill="#05CDFF"/>
<path d="M218.592 297.855L373.998 351.399L380.493 332.551L238.528 283.639C228.764 280.274 218.592 287.528 218.592 297.855V297.855Z" fill="#2D56A1"/>
<path d="M246.266 286.52L213.078 274.869C202.668 271.283 191.321 276.814 187.735 287.224L220.999 298.685C224.659 288.401 235.921 282.955 246.266 286.52Z" fill="#1A396B"/>
<path d="M160.042 437.159C162.417 444.053 169.931 447.716 176.825 445.34L373.998 377.406L369.698 364.924L160.042 437.159Z" fill="#6EE1FF"/>
<path d="M220.238 416.419L160.042 437.16C162.417 444.054 169.931 447.717 176.825 445.342L220.238 430.384V416.419Z" fill="#05CDFF"/>
<path d="M187.735 441.582L373.998 377.407L380.493 396.255L213.078 453.936C202.668 457.522 191.321 451.992 187.735 441.582V441.582Z" fill="#2D56A1"/>
<path d="M216.571 450.772C205.472 450.772 202.594 441.774 202.594 430.675C202.594 419.576 205.471 410.578 216.571 410.578C227.67 410.578 236.668 419.576 236.668 430.675C236.668 441.774 227.67 450.772 216.571 450.772V450.772Z" fill="#FF8500"/>
<path d="M212.583 430.675C212.583 425.657 214.424 421.073 217.466 417.553C219.926 414.708 217.698 410.268 213.968 410.745C213.89 410.755 213.812 410.765 213.734 410.776C204.695 412.035 197.516 419.469 196.584 428.548C195.346 440.601 204.771 450.772 216.571 450.772H216.657C219.498 450.76 220.905 447.196 218.844 445.24C214.989 441.58 212.583 436.41 212.583 430.675Z" fill="#FA690F"/>
<path d="M438.564 351.737H464.538V377.473H438.564V351.737Z" fill="#2D56A1"/>
<path d="M401.896 377.474H441.516C442.852 373.607 443.587 369.461 443.587 365.14C443.587 360.419 442.714 355.905 441.132 351.738H401.897V377.474H401.896Z" fill="#1A396B"/>
<path d="M395.42 402.387C374.554 402.387 363.646 385.472 363.646 364.605C363.646 347.097 369.546 332.372 385.704 328.084C388.803 327.262 392.06 326.823 395.42 326.823C416.286 326.823 433.201 343.739 433.201 364.605C433.201 385.472 416.286 402.387 395.42 402.387Z" fill="#96C0E4"/>
<path d="M415.482 369.593C414.904 359.534 406.705 351.323 396.647 350.722C396.544 350.716 396.442 350.711 396.34 350.706C389.9 350.417 386.595 342.776 391.004 338.072C391.092 337.98 391.18 337.887 391.268 337.794C395.345 333.532 391.398 326.553 385.702 328.079C369.902 332.315 357.638 346.678 357.638 364.604C357.638 387.109 376.819 403.658 397.75 402.338C400.88 402.141 401.923 397.957 399.23 396.347C399.175 396.314 399.121 396.281 399.066 396.248C396.588 394.75 397.255 391.005 400.073 390.338C409.232 388.175 416.062 379.665 415.482 369.593V369.593Z" fill="#5B92C3"/>
<path d="M321.873 437.881C317.893 437.881 314.667 434.655 314.667 430.675V297.128C314.667 293.148 317.893 289.922 321.873 289.922C325.853 289.922 329.079 293.148 329.079 297.128V430.675C329.079 434.655 325.853 437.881 321.873 437.881Z" fill="#1A396B"/>
<path d="M395.42 384.702C384.321 384.702 378.029 376.419 378.029 365.32C378.029 359.045 378.2 352.727 382.706 349.041C386.169 346.208 390.597 344.509 395.42 344.509C406.519 344.509 415.517 353.507 415.517 364.606C415.517 375.705 406.519 384.702 395.42 384.702V384.702Z" fill="#FF8500"/>
<path d="M388.382 358.544C388.382 356.67 388.64 354.856 389.121 353.135C390.165 349.406 385.715 346.604 382.715 349.051C377.862 353.009 374.896 359.187 375.374 366.043C376.078 376.158 384.498 384.296 394.63 384.686C394.735 384.69 394.839 384.693 394.943 384.696C399.988 384.813 401.882 378.192 397.633 375.468C392.042 371.884 388.382 365.604 388.382 358.544Z" fill="#FA690F"/>
</g>
<defs>
<clipPath id="clip0">
<rect width="512" height="512" fill="white"/>
</clipPath>
</defs>
</svg>
