<svg id="Capa_1" enable-background="new 0 0 512.013 512.013" height="512" viewBox="0 0 512.013 512.013" width="512" xmlns="http://www.w3.org/2000/svg"><g><path d="m78.967 475.963c2.842 3.809 7.295 6.05 12.041 6.05h30c57.891 0 105-47.109 105-105v-96.739c-32.78-19.332-57.735-50.63-68.522-88.057l-80.848 270.489c-1.362 4.541-.498 9.463 2.329 13.257z"/><path d="m204.814 482.003c3.021 0 39.216 0 36.194 0 8.276 0 15 6.734 15 15.01 0 8.291 6.709 15 15 15s15-6.709 15-15c0-5.284-1.082-10.295-2.763-15.01h17.763c8.276 0 15 6.734 15 15.01 0 8.291 6.709 15 15 15s15-6.709 15-15c0-14.632-7.128-27.528-17.975-35.751 63.904-32.053 107.975-99.024 107.975-175.249v-70.796c-24.155 50.537-75.355 85.796-135 85.796-15.742 0-30.786-2.701-45-7.242v83.242c0 42.627-20.246 80.231-51.194 104.99z"/><path d="m206.613 4.408c-4.277-4.277-10.708-5.581-16.348-3.252-5.61 2.314-9.258 7.793-9.258 13.857v88.517c13.292-7.751 28.535-12.517 45-12.517 31.274 0 58.857 16.025 75 40.298 16.143-24.272 43.726-40.298 75-40.298 16.465 0 31.708 4.766 45 12.517v-88.517c0-6.064-3.647-11.543-9.258-13.857-5.596-2.344-12.07-1.055-16.348 3.252l-25.605 25.605h-137.577z"/><path d="m181.008 151.013c0 66.273 53.725 120 120 120s120-53.727 120-120v-9.271c-11.005-12.596-26.993-20.729-45-20.729-33.091 0-60 26.909-60 60 0 8.291-6.709 15-15 15s-15-6.709-15-15c0-33.091-26.909-60-60-60-18.007 0-33.995 8.134-45 20.729zm195 0c8.284 0 15 6.714 15 15 0 8.284-6.716 15-15 15s-15-6.716-15-15c0-8.285 6.716-15 15-15zm-150 0c8.284 0 15 6.714 15 15 0 8.284-6.716 15-15 15s-15-6.716-15-15c0-8.285 6.716-15 15-15z"/></g></svg>