<svg width="1611" height="793" viewBox="0 0 1611 793" fill="none" xmlns="http://www.w3.org/2000/svg">
<path d="M464.257 266.75C427.007 266.75 401.257 286.25 401.257 317.5C401.257 382 503.257 350.5 503.257 393.5C503.257 410.75 487.507 422 464.757 422C438.757 422 423.757 407.5 423.507 387.75H396.257C397.257 421.5 422.757 444.25 463.507 444.25C503.257 444.25 531.007 424.5 531.007 392.5C531.007 326.25 429.007 359 429.007 316C429.007 299.25 443.257 289 463.507 289C485.257 289 499.257 301 500.007 321H526.507C525.757 287.75 500.257 266.75 464.257 266.75ZM633.851 319H606.101V287.25H580.351V319H557.601V340.5H580.351V442H606.101V340.5H633.851V319ZM722.108 316.75C684.108 316.75 656.858 343.5 656.858 380.5C656.858 417.5 682.108 444.25 716.608 444.25C735.358 444.25 751.858 436.75 761.858 425V442H787.358V380.5C787.358 343.5 760.108 316.75 722.108 316.75ZM722.358 422C699.608 422 683.108 404.75 683.108 380.5C683.108 356.5 699.608 339 722.358 339C745.358 339 761.858 356.5 761.858 380.5C761.858 404.75 745.358 422 722.358 422ZM851.005 442V368.75C851.005 350.25 862.255 340.5 881.255 340.5V319C845.755 319 825.255 336.5 825.255 366.5V442H851.005ZM976.771 319H949.021V287.25H923.271V319H900.521V340.5H923.271V442H949.021V340.5H976.771V319ZM1131.03 380.75C1130.78 343.5 1103.53 316.75 1065.53 316.75C1027.53 316.75 999.778 343.5 999.778 380.5C999.778 417.5 1027.53 444.25 1065.53 444.25C1095.78 444.25 1122.03 424.75 1129.03 397.5H1103.03C1098.28 412.25 1083.28 423.25 1065.78 423.25C1044.53 423.25 1028.53 409 1025.28 388.5H1130.28C1130.78 386 1131.03 383.25 1131.03 380.75ZM1065.78 337.75C1086.03 337.75 1102.03 350.5 1106.28 368.75H1026.03C1030.53 350.5 1045.78 337.75 1065.78 337.75ZM1191.73 442V368.75C1191.73 350.25 1202.98 340.5 1221.98 340.5V319C1186.48 319 1165.98 336.5 1165.98 366.5V442H1191.73Z" fill="#FE7218"/>
</svg>
